# xmcd
#
# Track frame offsets: 
#        150
#        11382
#        25040
#        37922
#        49842
#        63207
#        76725
#        87647
#        100707
#        108247
#        121885
#        130760
#        143222
#        153760
#        163957
#        171762
#        181500
#        194230
#        204590
#        214422
#        225802
#        235277
#        246427
#        258020
#        267195
#        278415
#        292087
#        305007
#        316905
#        326230
#        337285
#        348807
#
# Disc length: 4772 seconds
#
# Revision: 0
# Processed by: cddbd v1.5.1PL0 Copyright (c) Steve Scherf et al.
# Submitted via: ExactAudioCopy v0.95a4
#
DISCID=c112a220
DTITLE=Willie Nelson - Nashville Was The Roughest... - Disc 2
DYEAR=1900
DGENRE=Country
TTITLE0=Did I Ever Love You
TTITLE1=And So Will You My Love
TTITLE2=I Just Can't Let You Say Goodbye
TTITLE3=Down To Our Last Goodbye
TTITLE4=Fraulein
TTITLE5=I Love You Because
TTITLE6=I'd Trade All Of My Tomorrows (For Just One Yesterday)
TTITLE7=Making Believe
TTITLE8=Home In San Antone
TTITLE9=Don't You Ever Get Tired (Of Hurting Me)
TTITLE10=Columbus Stockade Blues
TTITLE11=Seasons Of My Heart
TTITLE12=Heartaches By The Number
TTITLE13=Go On Home
TTITLE14=My Window Faces The South
TTITLE15=San Antonio Rose
TTITLE16=I'm Still Not Over You
TTITLE17=San Antonio Rose
TTITLE18=Columbus Stockade Blues
TTITLE19=He Sits At My Table
TTITLE20=A Wonderful Yesterday
TTITLE21=The Party's Over
TTITLE22=One In A Row
TTITLE23=Make Way For A Better Man
TTITLE24=Did I Ever Love You
TTITLE25=And So Will You My Love
TTITLE26=I Just Can't Let You Say Goodbye
TTITLE27=Down To Our Last Goodbye
TTITLE28=A Wonderful Yesterday
TTITLE29=The Party's Over
TTITLE30=One In A Row
TTITLE31=Make Way For A Better Man
EXTD=
EXTT0=
EXTT1=
EXTT2=
EXTT3=
EXTT4=
EXTT5=
EXTT6=
EXTT7=
EXTT8=
EXTT9=
EXTT10=
EXTT11=
EXTT12=
EXTT13=
EXTT14=
EXTT15=
EXTT16=
EXTT17=
EXTT18=
EXTT19=
EXTT20=
EXTT21=
EXTT22=
EXTT23=
EXTT24=
EXTT25=
EXTT26=
EXTT27=
EXTT28=
EXTT29=
EXTT30=
EXTT31=
PLAYORDER=
